<svg xmlns="http://www.w3.org/2000/svg" width="388" height="164.18" viewBox="0 0 388 164.18"><defs><style>.cls-1{fill:none;stroke:#161616;stroke-miterlimit:10;stroke-width:5px;}.cls-2{fill:#161616;}</style></defs><g id="Capa_2" data-name="Capa 2"><g id="Capa_4" data-name="Capa 4"><ellipse class="cls-1" cx="194" cy="82.09" rx="191.5" ry="79.59"/><path class="cls-2" d="M54.58,65.41l-1,0c5-12.37,15.3-21.59,12.92-21.3l-3.85.47c-10.65,9.92-21.3,19.66-22.92,35h.55c2.8,0,1,0,9.65-15.36l.88,0a36,36,0,0,0,0,35.66l-.88,0c-8.64-15.35-6.85-15.35-9.65-15.37h-.55c.72,9.08,2.77,13.63,10.27,22.71s15.63,14,17.73,14.3c1.82,1.47,4.25,3.3,4.25,3.3-4-.57-6-.87-9.93-1.49,0,0-2.63-1.77-4.59-3.18,2.07.28-6.09-5.83-12.59-13.33-12.93-19.06-12.8-30.5-.1-49.34,6.47-7.5,14.6-13.61,12.52-13.33,2-1.41,4.76-3.3,4.76-3.3,6.16-1,9.23-1.41,15.39-2.26C68.2,45.87,59.69,54.71,54.58,65.41Z"/><path class="cls-2" d="M86.2,126.76s-2.29-2.05-3.89-3.58c2.08.24-3.37-4.39-11-14.57a63.05,63.05,0,0,1-4.87-7.21L58.83,101a45.66,45.66,0,0,0,3.69,7c6.49,10.2,13.32,14.41,15.4,14.65,2.9,2.65,4,3.53,4,3.53-2.6-.34-3.89-.52-6.49-.88,0,0-2.51-2-4.27-3.46,2.08.26-5.14-6.37-10-13.93C43,80.47,64.6,55.69,84.56,37.64l1.24-.16C64.17,61,59.75,81.17,76.64,109c6.08,8.36,13,15,15.09,15.25,2.56,2.75,3.56,3.67,3.56,3.67C91.65,127.44,89.83,127.22,86.2,126.76ZM63.76,96.27c-4.32-13.15-4.81-18.54-1.94-32C57.38,74.68,53.3,84.48,57.06,96Z"/><path class="cls-2" d="M94.86,99.74c3.36,11.48,9.62,21.93,17.27,31.05l-.54-.06c-7-7.9-3.27,0-5.78-.61-16.2-4-34.66-29-34.67-48s18.22-44,34.46-48c2.52-.61-1.29,7.28,5.78-.61l.54-.06c-7.53,9-13.74,19.23-17.15,30.5l-.89,0c4.41-16.5,11.4-26.6,7.29-24.76-13.31,6-24.08,27.23-24.08,42.92s22.57,43.84,24.41,43.08c1.23-.51-5.29-18.68-7.53-25.46Z"/><path class="cls-2" d="M132.14,32.81s-.63,1-2.23,3.94c-2.1.14-5.53,4.23-9.91,16.3a83.83,83.83,0,0,0-5,35.77c1.37,9.77,10.73,42.3,8.91,43.08-4.11,1.77-25.53-27.85-27.36-43a66.09,66.09,0,0,1,6.13-35.12c4-8.61,8.77-15.68,6.69-15.5,1.21-1.63,3-3.81,3-3.81,3.76-.36,5.64-.53,9.4-.85,0,0-.73,1-2.6,3.87-2.08.16-7.55,7.37-11.28,16.05A70.78,70.78,0,0,0,102.07,89c1,12,16.07,35.67,17.76,35.08s-5-27.44-6.11-35.53a82.47,82.47,0,0,1,5.09-35.43C123.26,41.05,126.09,37,124,37.16c1.75-2.93,2.43-3.91,2.43-3.91Z"/><path class="cls-2" d="M152.63,31.56s-.42,1-1.49,4c-2.1.09-4.54,4.29-7.52,16.67-5.53,28.37-3.14,53.09,6.67,80.23l-1.61-.08c-14.3-27-23.43-52.2-19.73-83.06-6.49,22-6.84,40.14-1.11,62.2,3.89,12,7.38,16.34,9.45,16.46,1.42,3,1.91,3.84,1.91,3.84l-6-.41s-.54-.85-2.12-3.81c2.07.13-.48-4.09-4.44-16.12-5.56-20.68-5.6-37.94,0-58.72,2.92-8.91,6.49-16.25,4.42-16.12.9-1.69,2.19-3.94,2.19-3.94,2.8-.21,4.2-.3,7-.48-6.16,21.33-5.84,39.4-.92,61.05-1.3-14,.39-27.26,3.15-41,3.06-12.38,4.56-16.52,2.49-16.42,1.23-3,1.71-4,1.71-4Z"/><path class="cls-2" d="M168.33,82.09c0,9,5.16,45.71-6.51,50.93-3.25-.12-4.88-.19-8.14-.35,0,0-.8-2.16-1.4-3.9,2.07.09,0-7.43-1.87-16.55a173.86,173.86,0,0,1,0-60.11c1.9-9.13,3.92-16.64,1.85-16.56.6-1.73,1.45-4,1.45-4,3.26-.16,4.89-.23,8.14-.35C173.47,36.43,168.33,73,168.33,82.09Zm-5.76,0c0-8.82,5.94-38.12-2.48-45.11l-1.17,0c-7.26,31-7.24,59.28,0,90.29l1.16,0C168.53,120.26,162.57,91,162.57,82.09Z"/><path class="cls-2" d="M193.6,82.09c0,11.53-3.35,52.64-9.5,52.81-7.34.2-14.48-39.9-14.48-52.81s7.6-53,14.48-52.81C190.58,29.46,193.6,70.52,193.6,82.09Zm-5.86,0c0-12.77-2.94-47.15-4.14-47.22-2.73-.16-8.12,34.24-8.12,47.22s6.88,47.44,8.14,47.37C186.2,129.3,187.74,94.9,187.74,82.09Z"/><path class="cls-2" d="M202.24,51.62c.64,20.39.64,40.7,0,61.08-.36,9.28-.35,16.93,1.72,16.91-.25,3.09-.33,4-.33,4-3.77,0-5.66,0-9.43.06v-4c2.1,0,2.75-7.66,2.88-16.94q.36-30.56,0-61.11c-.13-9.28-.77-16.94-2.88-16.94V30.55c3.77,0,5.66,0,9.43.05,0,0,.1,1,.35,4.12C201.9,34.7,201.89,42.35,202.24,51.62Z"/><path class="cls-2" d="M231.64,52a203.93,203.93,0,0,1,0,60.37c-1.64,9.16-3.36,16.71-1.26,16.63-.91,3.05-1.22,3.92-1.22,3.92-3.77.16-5.66.23-9.43.34,0,0,.51-2.19.89-3.94,2.1-.06,4.45-7.66,5.86-16.86a238.05,238.05,0,0,0-1.26-68c1.31,24.67-1.56,47.55-6.82,71.64h-1.19C216.9,93,214,70.82,209.92,48.15a492.3,492.3,0,0,1,.27,64.5c-1,12.49-1,16.89,1.08,16.86-.43,3.08-.58,4-.58,4-2.4.05-3.61.07-6,.1,0,0,.1-.88.37-4,2.07,0,3-4.44,3.92-16.94a528.24,528.24,0,0,0,0-61c-.65-9.26-1.84-16.91-3.91-16.93-.16-1.76-.39-4.12-.39-4.12,2.72,0,4.08.06,6.8.12,4.9,19.19,8.89,38.77,10.57,58.53,2.91-19.18,3.3-39.07.13-58.24,2.78.09,4.17.14,6.95.26,0,0,.36,1,1.27,4.06C228.3,35.26,230,42.81,231.64,52Z"/><path class="cls-2" d="M240.64,132.35s1-2.3,1.68-4c2.08-.1,5-5.26,7-16.56.55-3.2.76-4.81,1.06-8l-7.63.14s-.9,3.63-2.24,8.11c-3.53,11.82-4.68,16.62-2.6,16.52-1.1,3-1.53,4-1.53,4l-6.48.3s.76-2.32,1.29-4.06c2.08-.08,5.39-7.93,8-16.77,7.24-27.84,7.95-52.59-.21-80.3l1.23.07c12.36,26.36,18.5,50.7,14.41,79.8-1.76,9.09-5,16.33-2.91,16.21-1.45,3-2,4-2,4C246.09,132,244.28,132.15,240.64,132.35ZM250.8,98a123.41,123.41,0,0,0-4.17-36.23,128.51,128.51,0,0,1-2.53,36.33Z"/><path class="cls-2" d="M270,34s.77,1,2.74,3.85c-2.1-.17,1.13,3.82,6.15,15.69,9.93,29,5,51.36-11.24,76.93l-1.6.14c13.22-29.1,9.43-52.87-4.19-81.1,6.79,22,7.16,39.92,1.16,62-4.06,12-6.35,16.2-4.28,16.06-1.63,3-2.18,3.8-2.18,3.8-2.4.18-3.6.26-6,.42,0,0,.49-.85,2-3.83,2.07-.12,5.3-4.38,9.29-16.41,5.58-20.67,5.63-37.91,0-58.68-2.94-8.91-7.18-16.29-9.26-16.41-.83-1.7-2-4-2-4,2.8.18,4.2.28,7,.49,12.62,18.12,24.38,37.18,25.26,60a72.71,72.71,0,0,0-5.12-39.43c-5-11.9-9.11-16-11.19-16.12-1.81-2.91-2.52-3.89-2.52-3.89Z"/><path class="cls-2" d="M290.82,36.1s1,.92,3.49,3.68c-2.1-.22,2.14,3.58,8.59,14.95,5.89,10.17,8.86,22,7.34,33.7-2.28,16-26.7,43.09-29.58,41.86-2.05-.89,9.26-31.71,11.07-41.37a66,66,0,0,0-6.14-35.1c-4-8.61-9.73-15.75-11.8-15.92-1.14-1.65-2.78-3.84-2.78-3.84,3.76.34,5.64.52,9.41.91,0,0,.87.94,3.11,3.77-2.07-.19,3,6.8,7.22,15.33a61.88,61.88,0,0,1,6.49,34.79c-2.17,10.65-9.61,33.45-9.21,33.69,1.82,1.07,19.34-22.24,21-34.36,1.43-11.67-1.51-23.38-7.3-33.53-6.37-11.39-11.22-15.27-13.32-15.47-2.36-2.8-3.28-3.73-3.28-3.73C287.39,35.71,288.54,35.83,290.82,36.1Z"/><path class="cls-2" d="M331.46,98.85c-5.41,10.74-14,19.65-23.36,27.08-6.49.87-9.74,1.28-16.23,2,0,0,2-2,3.41-3.53,2.07-.22,9.26-7,14.3-15.25,9.82-20.46,9.75-33.79.08-54-5-8.2-12.19-15-14.26-15.24-1.45-1.58-3.53-3.67-3.53-3.67,6.11.7,9.17,1.09,15.28,1.91,9.28,7.46,17.82,16.41,23.17,27.15l-1,0C324.51,56.62,317,47,307.84,42.59l-3.74-.39c9.51,11.23,18,22,19.22,37.32h.42c2.8,0,7.89,0,.6-15.86l.85,0a41.22,41.22,0,0,1,0,36.8l-.85,0c7.29-15.87,2.2-15.87-.6-15.86h-.42c-1.17,15.36-9.78,26.18-19.34,37.45l4.73-.5c9.19-4.45,16.84-14,21.74-22.71Z"/><path class="cls-2" d="M352.39,97.88c-6.74,10.89-16.64,18.14-26.85,25.51-6.49,1-9.74,1.49-16.23,2.37,0,0,2.3-1.87,4-3.37,2.08-.25,10.43-6.75,16.35-14.55,11.68-19.72,11.58-31.88.09-51.38-5.88-7.8-14.22-14.3-16.29-14.55-1.71-1.5-4.16-3.49-4.16-3.49,3.76.51,5.64.78,9.41,1.33,0,0,2.64,1.94,4.49,3.39-2.07-.27,5.58,6,11.68,13.7C351.51,83,343.49,99.52,322.28,120l4.72-.59c9.76-4.28,18.45-12.85,24.38-21.51Z"/></g></g></svg>