<svg xmlns="http://www.w3.org/2000/svg" width="342.05" height="538.57" viewBox="0 0 342.05 538.57"><defs><style>.cls-1{fill:none;stroke:#161616;}</style></defs><g id="Capa_2" data-name="Capa 2"><g id="Capa_4" data-name="Capa 4"><path id="SKULL2" class="cls-1" d="M334.33,276.59l.23-.76,6.94-19.26,0-.11-5-34v-82l-9-30.17-10-29L300.44,56.12,275.36,34l-36.18-18.1-33.09-11-35-4.35-.09.66,0-.31-34.15,3.9.1-.23L102.61,16v0L67.47,33.62l0-.24-.62.57h0L41.7,56,24.61,81.12,14.55,110.26l-1.32,4.4-.12,0,0,.61L5.53,140.33v7.58h0v38.26h0v36.16l-.08.58H4.25l1.09.71L.51,256.46l1.24,3.44-.48.65,6,15.28.15-.23,2.1,5.86-2,14,1,2.24-1.34.88,2,.5L18.29,319l-.26.62.58.24,2.64,13.23-1.86-.84,2.08,1.95,2.07,10.3v.09l20.8,32.69.23.44,2.59,11.63-.06.18.12.11,3.29,14.78-1,5.59-.19-.65L46.71,423l.34.62L43.93,441l0,0-1.77,9.79,0,0-.67,3.74,8.2,12.41.6,2.09.28-.76,10.58,16,.19,1.21.3-.48,21,31.7,3.51,2.11v.06l14.65,8.79,0,0,17.15,10.32h.2l.11.16,52.63-3H171l52.87,3,.11-.16h.2l35.13-21.08.1-.05,20.81-31.47.05.08,0-.22L291,469l.05.15.11-.4,9.28-14,.11-.17-.67-3.74,0,0-1.76-9.79,0,0-6.58-36.56,5.95-26.82,21-32.93,2.43-12.09.36-.33-.32.14,2.58-12.83,11-24.08-2-14,1.77-4.91Zm6.18-20.24-1.36,3.78-8.92-11.9-.58-20.91,6-3.94Zm-17,1.44h0l-5.26-2.23-.73-20.31,6-3.93Zm-.12,2.48-1.26,18.37-4.59-6.34.14-.2-.17-4.43.72-11,5.26,2.23-.45.87Zm-1.31,30-4.9,9-4.58-19.36h.64l-.71-.61,4.39-6.14,4.77,6.57Zm-7.21,31.24-.28-.12.46,0Zm-26,54.4,4.42,13.29-5.75,5.08v-18Zm-1-.79-.35.09-.46-4.66,1.21,3.62-.47.92Zm-1.24-9-.13-1.3L299.1,353l-10.18,19.94Zm6.79,56.8-2.15,5-1.14-8.33,1.63-5.86Zm5.39,27.64-5.06,7.21-1.08-6.39-.1-1.29,5-6.65Zm-5.95,7.95-.22.85L290,463.12l-2.29-6.51,4-5.33Zm-1.95,7.26-.52-1.47,1.48-2.11ZM287,457.58l2.31,6.55-6.67,9.5-.09.14V463.54Zm-4.45,4.29V445.73l.33-.47,3.66,11,.06.15Zm4.77-6.4-3.73-11.24,7-12.69.91,17.89,0,.35Zm3.21-25.79-5.95,10.7,4.91-18.31ZM282.56,444l-.46.63-8.9-3.76,9.8-23.49,6,2.49Zm-2.81,38.75L278.68,481l2-2.83Zm-1.64-2.66-3.59-5.8,7-9.39v9l-.38,1.88ZM243.8,524.71l1-1.68.4-.16,10.73-9.71-1.32,5.05Zm-20.36,12.16-17.61-1,5.58-7,.2,0h17.32Zm-110.31-8h16.18l5.93,7-16.63.94ZM87,518.22,85.94,513l10.68,9.7,1.21,2ZM60.79,475.57l-.27-1.7-.9-10.22L67.3,474l-3.58,5.79Zm2.36,5.1-1.23,2-.77-4.83ZM44.51,443.42l4.28,5.74-.19,2.14-1,5.5-4.39-6.26ZM48.43,458l1.16-6.52.1-1.07,4.33,5.8-2.38,6.37Zm2.79,5.72-.79,2.13-1.57-5.49Zm-1.48-49.31,1.54,5.25-.63,8.45-2.55-4.58Zm.52-2.88.47.08L52,404.39,49,391.16l5.13,4.51,4.22,20.8-6.2,2.42-2-6.73Zm-4.77-34.27-.34-.55-1.61-3.09,8.23,2L48,386.91l-2-8.62-.45-.86ZM19.43,319.13,13,305,21,302.1l2.16.55.15.07,2.18,18.74.5,0-.46.2.05.11Zm-1.78-59.46-.06-.73,5.22-2.21.72,10.73v.34l-.17,4.1-4.46,6.15-1.23-17.93.12-.18Zm-14.77.4,8.06-10.74,5.69,10.55-9,13.51Zm13.65-3.43-5-8.37L12.08,228,16.53,231ZM40.88,68.7,44.16,77l-.27.24-15,20.57-4-6.53.54-2.61Zm2.54-12L66.68,35.43l.85,7v.68L41.83,65.92Zm60-39.87L135.13,6.23l-2.62,6.1,0,.12L101.79,24l-.16.08Zm136.35,8.05L272.53,42.7V55.81L239.16,37.15l-.61-.17.94-12.25Zm57.85,31.82,1.4,8.2L273.55,42.21l.82-6.78Zm18.92,32,.23,1.11L312,97.57l-14.8-20.35-.32-.28,3.61-9.09Zm12.7,60.23-1,35.17-5.12,3.22.41-36.83v-.31Zm-5.73.22v-31.7l3.24-1.12,2.48,31.58Zm5.1,77.72-4.1,2.69v-3.83l3.88-1.74h.14Zm.92-2.88H333l-3.42,2.24Zm-13.23,48.4-3.79,5.31V250.81l1.77,11.48,2.23,5.36v.62l-.26,4Zm-247.49,202-.45-.6-7.87-27.45-.37-.72,8.69-3.76,10.74,23.82.73,1.63ZM52.39,419.85l6.22-2.43,9.83,23.45-8.7,3.77-.21-.55ZM57.28,440l-5.75-10.33.55-7.33Zm-8.87-51.21,4.29-12.85,1.44.35.39,1.37v17.07l-6-5.23Zm.2-43.63,3.54,1.49.26,7.71-1.66-4Zm4.89,11.71-.34-9.8,6.45,2.72,1.77,6.2Zm8.19.1.16.46,5.44,15.49h-3l-7.8-8.78-2.61-6.31Zm32.94,66.7a.58.58,0,0,1,.17-.49.55.55,0,0,1,.5-.16l1.85.31a.56.56,0,0,1,.48.49l.48,4.66-2.79.07Zm16,2.81h0l.59,13.89-4.11-.4a.61.61,0,0,1-.42-.23l-1-1.32-.17-.15a.34.34,0,0,0,0-.1l-.94-13.23a1.34,1.34,0,0,0,0-.31l.26-.54a.58.58,0,0,1,.74-.26l4.76,2.14A.57.57,0,0,1,110.62,426.47Zm1-.05v-.29a.52.52,0,0,1,.11-.36l.69-.95a.59.59,0,0,1,.77-.15l3.14,1.89a.57.57,0,0,1,.27.43l1.85,14.79-6.22-1.27-.61-14.08Zm14.92,5.81a.5.5,0,0,1,0-.17l1.48-3.81a.63.63,0,0,1,.17-.21l4.92-4.16a.62.62,0,0,1,.74-.05l5.41,3.47a1.53,1.53,0,0,0-.09.56l.25,4.89-.9,11.46v.12a1.52,1.52,0,0,0,.22.8,1.58,1.58,0,0,0-.64.73l-.22.53L136.06,449l-.11,1h-5.27a.56.56,0,0,1-.53-.4l-1.21-4.2a1.55,1.55,0,0,0-.48-.7l.36-.07-2.29-12.12v-.1h0Zm14.28-4.16a1.56,1.56,0,0,0-.19-.85l1-.49a.54.54,0,0,1,.33-.05l9.05,1.25a.53.53,0,0,1,.4.23h0a.93.93,0,0,1,.05.1l-.12,0,.19.56v16.06h-.16a1.5,1.5,0,0,0-1.37.82l-2,3.88a.56.56,0,0,1-.48.3h-4.44a.54.54,0,0,1-.52-.41l-.83-3.43a1.18,1.18,0,0,1,0-1.82l0-.38-.81,0,.1-.14-.56-11Zm13,.12a.6.6,0,0,1,.52-.28h13a.55.55,0,0,1,.45.21l1.59,1.95a.56.56,0,0,1,.12.45l-2.11,14.59-.17.09.14.18-.12.8a1.48,1.48,0,0,0-.54.64L165,450.56a.58.58,0,0,1-.52.35h-6.9a.59.59,0,0,1-.49-.26l-3.35-5a1.57,1.57,0,0,0-1.23-.7V430.27Zm48.71-.62s0-.07.08-.1l5.55-3.65a.57.57,0,0,1,.69.05l4.79,4.15a.71.71,0,0,1,.17.24l1.43,3.78a.49.49,0,0,1,0,.28l.25,0-2.23,12.12a1.58,1.58,0,0,0-.61.84l-1.2,4.18a.58.58,0,0,1-.54.41h-5.44a.51.51,0,0,1-.41-.24l0-.43-.48-.76-1.06-2.63a1.52,1.52,0,0,0-1-.88l0-2.07h.17ZM292,345.15,290.85,348l-2.64,6.4.25-7.73Zm-4.89,11.71-7.88-.88,1.77-6.2,6.43-2.71ZM273,373.91h3.79l1.69-1.59-1.79,2.21-.54-.29-1.56,2.88-.34.42.18-.11-5.62,10.42Zm-5.62,18.7,8.77-16.28,2.44-1.55,3.58,1.94-6.07,18.45-.11.54-2.12-1.31-6.84-.64Zm-.64,2.46.1-.32,6.7.62,2.24,1.39-3.55,17.44-1.18,1.61-2.36-.9-4.54-.9Zm-25.07,77.44-7.43,8.06-1.45-14.32,8.35-5ZM191.37,513l-.9-12.93,17.11,3.71,2.77,12Zm-39,12.73-.86-11.83,19-1.65v13.7H152.4Zm-21.6-9.78h-.46l2.92-12h.32L151.46,500l-1,12.94ZM89.72,485.39l9.5-10.54,7.71,8.57-6.06,13.12ZM71.05,429.91h8.29l3.8,13.88L71.53,440V430.5Zm-.92,10.23-.77.33L59.52,417l3.37-1.77,6.64,14.26h0Zm-5.58-44.78.14.71L60.47,395l0-.09H60.4l-4.87-17.4v-1l2.93.41ZM57.07,368l6.18,5.4-.46.37-3.62,2Zm-1.54,13.22,3.84,13.7H55.53Zm9.38,16,3.53,17.34.71,1.05-5-.85-.5-1-.2.1-2.8-17.76Zm5.43,31.75-6.13-13.18,5.78,1,9,12.21Zm10.11,1.27,6.74,3.37,3.64,11.38-4.23,0-2.34-.76Zm5.58-.26.74,2.3-4.63-2.31H86Zm42,15.67,1.21,4.2a1.55,1.55,0,0,0,1.49,1.12h5.15l-.23,2H123l1-7.22,3.34-.49A.55.55,0,0,1,128,445.59Zm12.74-1.43v.14a.53.53,0,0,1-.15.41.65.65,0,0,1-.38.18Zm-1.26,1.77.07,0h.7a.52.52,0,0,1,.52.4l.84,3.43a1.54,1.54,0,0,0,1.49,1.17h4.44a1.56,1.56,0,0,0,1.36-.83l2-3.89a.52.52,0,0,1,.48-.28h.16v8.86l-14.93-1.85.26-2.23a1.51,1.51,0,0,0,.68-.75l1.23-3.06Zm28.19,1.3a.5.5,0,0,1,.19-.22l1.69-.06v8h-17v-9a.57.57,0,0,1,.4.23l3.35,5a1.57,1.57,0,0,0,1.32.71h6.9a1.6,1.6,0,0,0,1.43-.93ZM174,450.6c.19.39.7,1.31,1.48,1.31H184a1.57,1.57,0,0,0,1.31-.71l3.35-5a.58.58,0,0,1,.49-.25h.34v9h-18V447l1.65.45Zm39.68-5a.57.57,0,0,1,.61-.4l3.35.49,1,7.22h-13.2l-.22-2.06a1.47,1.47,0,0,0,.29.05H211a1.57,1.57,0,0,0,1.5-1.13Zm39.54-11.43-3.43,10.74h-.56l.09-.49-.76.45v-8.39ZM242,459.43l-.88-10.52,6.38-2.4v.11l.39-.23-1.77,9.74Zm-20.42,7.48h-1.08v-13l10-1.85v.4l1.56-.35-.3,13.48ZM204.53,485.5l2.84,17.18-17-3.69-1-14.81V484l12.35.85,2.74.3Zm-2.66-1.61L189.53,483l1.26-15.13h13.74v16.27Zm-31.34,1v11.7l-18,2.23.93-13.66Zm-37.05,18,2.85-16.39,2.92-.32,13.23-.94L151.53,499Zm19.07-18.66-13.39.95-2.65.3,0-.08v-17.5l14.68,1,1.36,15.22Zm-42.7-18.66L109.54,452l1.39.28.59.19v-.09h0v-.35l10,1.85v13h-1.44ZM96.3,432.49l2.93,4.28L94.82,436Zm-2.77,12.56-1.15-.39.05.27h-.55l-3.44-10.76,5.21,2.6Zm-.92.85.55,3-1-3Zm2.87,10.23-1.8-9.93,6.81,2.56-.88,10.67Zm40.05-2.23v13h-13v-13Zm15.08,1.76.44,11.52.06.69-14.58-1h0v-13ZM135.53,467.9v17.43l0,.27-14.38,1.59-.67-.21,2-19.08Zm16.52-.78-.43-11.21h18.91v12H152.12Zm19.48-11.21h18.74l-.4,11-18.34,1Zm33-1.88v12.88H190.87l.41-11.22Zm1-.12h14v13h-14Zm0,14h14.09l1.83,17.47-1.5.47-14.41-1.56ZM249,446l.14,0h.29l-1,3Zm-1.72-10-4.89.82,3.26-4.71Zm-4.42-3.11,1.44-.59-1.76,2.55Zm-1.62,5.1v0l6.27-1v8.54L241,447.91h-.72l-3-9.12,3.72-.74C241.07,438,241.15,438,241.25,437.94Zm-.17,22.2-8.28,5,.29-13.22,7.09-2.63Zm-4.65-20.69,3,9.05-6.28,2.36v-.1l-1.59.4v-.32l-.19,0-1.78-8.47a2.37,2.37,0,0,0,.23-.3l.26-.46a.58.58,0,0,1,.19-.19l.59-.12h0l3.8-.38a1.58,1.58,0,0,0,1.11-.61Zm-8,2.46H228l.75-.16A.59.59,0,0,1,228.42,441.91Zm-5.31,1h2.11l-4,1,1.21-.94h0Zm5.56.11,1.7,8-9.88,1.85h-.84l-1-7.16a1.74,1.74,0,0,0,.55-.21Zm-27.13,2.89h.22l1.92,3,.4,1s0,.05,0,.08l.31,3-13.56,1.68-.35,0V446a.6.6,0,0,1,.21.21l2,3.9a1.55,1.55,0,0,0,1.36.82h4.43a1.53,1.53,0,0,0,1.49-1.17l.84-3.43a.53.53,0,0,1,.52-.4ZM123,445.75l-1,7.16h-.37l-10-1.86,1.33-8,9.47,2.51A1.69,1.69,0,0,0,123,445.75Zm-6.57-2.84h2.38a.6.6,0,0,1,.34.11l1.21.93Zm-3.21-1a.6.6,0,0,1-.49-.27l1.32.27Zm-1.64-.26.27.47a1.09,1.09,0,0,0,.23.29l-1.4,8.46-.15,0v.35l-1.41-.28-6.84-2.55,2.92-8.91.69.89A1.58,1.58,0,0,0,107,441l4.13.41A.59.59,0,0,1,111.58,441.65Zm-2.74,23.48-8.29-5,.92-11,7.06,2.65Zm-7.47-17.22h-.3l-6.54-2.46.08-8.46,5.76,1v0c.1,0,.18.09.28.11l3.7.73Zm-4.29-16h1a.54.54,0,0,1,.37.16l0,.39.16,0,.39,2.36Zm1.14-2.44.08.8h0l.07.66a1.1,1.1,0,0,0-.25,0H96.65a.58.58,0,0,1-.19,0l-.9-1.34Zm-3.61.72a1.35,1.35,0,0,0,.19.33l.59.75a1.09,1.09,0,0,0,.23.25l-1.77,4.24L88,432.84,87.09,430Zm-8.24,15.69,4.77,0,3.33,10.41-2.53,3.37-7.17-14.31Zm8.75,11.24,4.39,3.51-.58,12.42-.64-.71-5.85-11.66Zm4.76,17,.6-12.83,8.35,5-1.62,15.95Zm9.92-7.55L120,467.91h1.41l-2,18.76L108.11,483ZM120.26,488l.75.24,14.3-1.58-2.85,16.28H117.08Zm31.26,24.89.95-13,18.06-2.23v13.59Zm18.89-29.95-.21,1-16.65.27v-.09l-1.35-15.18h18.32v14Zm1.12-14.05,18.26-.94-1.26,15-.81,0H171.53Zm0,15.05h16.16l.76.06,0,.21,1,14.66-17.86-2.22Zm17.93,15.94.91,13-18.84-1.63V497.62Zm19,3.06h0l-2.89-17.49v-.12l14.4,1.56H220l1.51-.47.1.93L225,502.91Zm12.18-35h1.06l10.16-1.31,1.52,15-.13.13-10.8,3.39Zm25.91-10.78,2.1,2.81-5.86,11.4-.13.15-.51-10.84Zm.64-.81,3.33-10.4h5l.31-.08-6.71,13.11Zm8.29-11.4h-4.64l3.63-11.36,6.06-3-3.82,13.66-.2.39Zm6.25-15h8.08l.67.84-.55,9.49-12.15,3.92h0Zm8-1H262.6l8.88-12,5.8-1.08Zm-6.62-14.66-6.21,11.6L265,400.57Zm.75.72,4.56.9,2,.77-9.08,12.27h-5.43l.17-.52.46.24Zm-8.2,15,3.8,0-4.6,2.3.73-2.28Zm-2.06,2.9-5.43,2.72-1.69-4.1.85-1.26,7.2-.23Zm-7.46-3.21a.78.78,0,0,1-.11.28l-.61.78,0,.05-.41.17h-1.46a1.14,1.14,0,0,0-.26,0l.74-7.12a.56.56,0,0,1,.48-.49l1.85-.31h.1a.56.56,0,0,1,.4.17.55.55,0,0,1,.17.49Zm-4,2.05a1.62,1.62,0,0,0-.22.54l-.73,4.37a.54.54,0,0,1-.11.26.57.57,0,0,1-.34.22l-3.62.72.9-12.79a.63.63,0,0,1,.07-.21.57.57,0,0,1,.21-.25l3.62-2.17a.57.57,0,0,1,.78.18l.23.36a.54.54,0,0,1,.08.38Zm-5.11-6.75-.94,13.21s0,.08,0,.12-.13.1-.18.16l-1,1.31a.61.61,0,0,1-.42.23l-3.66.36.6-13.86v-.28a2.34,2.34,0,0,0,0-.26l4.68-2.1a.58.58,0,0,1,.74.26l.28.51A1.28,1.28,0,0,0,237.07,424.93Zm-6.61,1.51-.6,14.07-6.22,1.27,1.85-14.8h0a.57.57,0,0,1,.27-.42l3.14-1.89a.58.58,0,0,1,.78.16l.59.81a1.53,1.53,0,0,0-.25.78Zm-6,.42h0l-1.89,15.08a1.72,1.72,0,0,0-.74.28l-3,2.33-.1.07-.56.14-3.8-.55h0l2.15-11.71.11-.63a.62.62,0,0,1,.2-.34l6.51-5.81a.58.58,0,0,1,.49-.14.61.61,0,0,1,.41.3l.22.47a.46.46,0,0,1,.06.33Zm-23,18.05h-.13a1.52,1.52,0,0,0-1.49,1.16l-.84,3.43a.53.53,0,0,1-.52.41h-4.43a.57.57,0,0,1-.48-.29l-2-3.88a1.51,1.51,0,0,0-1-.79l-.09-3.56V428.77a.6.6,0,0,1,.11-.34l-.35-.26.07-.22a.57.57,0,0,1,.36-.18l8.94-1.28a.58.58,0,0,1,.3,0l1.42,1.2a1.13,1.13,0,0,0,0,.32Zm-12,0h-.34a1.57,1.57,0,0,0-1.32.7l-3.35,5a.57.57,0,0,1-.48.27h-8.59a1.68,1.68,0,0,1-.54-.64l-1.11-4.47-.53,0-1.18-15.28a.65.65,0,0,1,.13-.47l1.59-1.95a.59.59,0,0,1,.46-.21h13.1a.6.6,0,0,1,.46.2l1.7,16.33Zm-20.05,1-1,0a.25.25,0,0,1,0-.07h1ZM140,443.48l-.45.62.29-3.67Zm-14.47-11.2s0,.09,0,.13l2.21,11.82a1.75,1.75,0,0,0-.51,0l-3.71.54h-.09l-.57-.15-3.11-2.39a1.3,1.3,0,0,0-.26-.14l-1.91-15.21,0-.22a.65.65,0,0,1,.06-.32l.22-.44a.59.59,0,0,1,.41-.31.58.58,0,0,1,.49.14l6.51,5.81a.56.56,0,0,1,.19.33Zm-22-7.43a.54.54,0,0,1,0,.15l.91,12.79-3.63-.73a.54.54,0,0,1-.34-.2.62.62,0,0,1-.11-.27l-.73-4.37a1.43,1.43,0,0,0-.22-.54l0-.32-.84-8.09a.55.55,0,0,1,.09-.37l.22-.35a.56.56,0,0,1,.77-.18l3.62,2.17A.62.62,0,0,1,103.53,424.85Zm-23.26,4-8.87-12h2.67L79,416l5.9,10.44.76,2.36Zm-.75-14-1.1.21-9.73-19.75,6.09-.57,8.63,27Zm-2.12.4-3.42.65H71.29l-.73-.12-1.17-1.59-3.55-17.44,1.87-1.16ZM65.63,395.71l-.12-.6-6-18.11-.09-.3,3.9-2.1.34-.28,3.68,20.32Zm-7.45-19.85-2.65-.36v0l-.43-.1.77-8Zm-4.07-.73-1-.26,1.52-4.56Zm5.49,20.78,2.91,18.42-3.28,1.72-4.07-20.14Zm-.07,50.62,7.16,24.93-7.16-9.6Zm-1,14L55.15,456l3.38-9.06ZM68,474.81l0,0-.08,0ZM70,442l-.24-.57,1.16-.51,12.54,4.05,7.71,15.42-10,6.34Zm21.62,19.29,5.82,11.59,1.12,1.25-9.38,10.4-7.6-16.87Zm-2.33,25.07,11.21,11.24-2.9,12.8-12-11.12ZM107.77,484l11.49,3.68-3.2,15.23-14.36-5.74Zm9.07,19.9,15.39,0-2.92,12H113.19Zm14,13L150.55,514l.85,11.75V526l-21.37,2h-.2l.41-11ZM151.42,527l.1,7.79-15.27.83-5.67-6.71Zm1,0h18.11v7l-18,1Zm19.11-14.7,18.8,1.63-.8,11.88v.19h-18Zm18.88,22.53.1-7.76,19.7,1.8-5.41,6.79Zm.11-8.76v-.22l.8-11.8,19.14,2.83.39,11Zm20.88-10.07-2.76-12,16.58,0,3.64,12Zm11.24-28.75-.12-1.08,10.94-3.42,0,.49,6.44,14-14,5.62Zm11.85-4.2-.1-1.07,7.35-8v.21L252,485.43l-11.16,11.2Zm17.91,3.45,4,12.84-12.33,11.44-2.94-13Zm-9.66-12.7,0-.83.85-.92,5.75-11.16,10.8,6.85-7.58,16.91ZM250,460l-.15-.2,7.38-14.43L270.92,441l1,.41-10.7,23.82-.68,1.53Zm21.58-19.89V430.5l-.06-.07.06-1v-.5h-.64l7.67-13.31.26-.5,3.29,1.81-9.83,23.54Zm6.59-25.89-.21.45-5.53,1,.73-1,3.61-17.54,4.27-1.08Zm-1.18-18.18.13-.65,6-18.15.1-.37,3.23-.45-5.17,18.46-.07.09Zm5.51-20.33-3.78-2.05,5.18-6.4,1.21-1.13Zm.67-9.13-6.71,6.3h-3.07L279,357l7.83.87-2.64,6.39.69.29ZM287.49,346l-7.3,3.08-2.06,7.2L277,359.58l-4.81,13.67h0v0l-5.7,19-.4.76-.19,1.22-.32,1.07.08,0L254.86,429l-7.64.24.77-5.41a1.55,1.55,0,0,0-.46-1.34,1.58,1.58,0,0,0-1.37-.43l-1.85.31a1.72,1.72,0,0,0-.45.16l-.05-.12-.22-.35a1.57,1.57,0,0,0-2.14-.5l-3.63,2.17,0,0,0-.1a1.59,1.59,0,0,0-2-.7L231,425l-.55-.77a1.57,1.57,0,0,0-2.1-.42l-3.13,1.88-.13-.26a1.58,1.58,0,0,0-2.46-.47l-6.51,5.81a2.09,2.09,0,0,0-.22.28l-1.19-3.14a1.57,1.57,0,0,0-.45-.64l-4.8-4.16a1.57,1.57,0,0,0-1.9-.13l-5.54,3.65a1.12,1.12,0,0,0-.2.17l-1.3-1.1-.09-.06a1.61,1.61,0,0,0-.95-.15l-8.94,1.28a1.56,1.56,0,0,0-1.08.65l-.31.85.11,4.32-.5-4.85-.06-.1a1.64,1.64,0,0,0-1.37-.74h-13.1a1.58,1.58,0,0,0-1.23.58l-1.59,1.95a1.58,1.58,0,0,0-.35,1.21l1.17,15.2-1.23,0h-.36l-.07-.48.12-.51h-2.26l2.06-14.25a1.6,1.6,0,0,0-.34-1.23l-1.58-1.94a1.59,1.59,0,0,0-1.23-.58h-13a1.61,1.61,0,0,0-1.36.74l-.47.75a1.58,1.58,0,0,0-.3-.83,1.61,1.61,0,0,0-1.08-.63l-9-1.25a1.49,1.49,0,0,0-.91.14l-1.11.54-.19.13L134.41,423a1.64,1.64,0,0,0-1.94.12l-4.93,4.17a1.55,1.55,0,0,0-.44.62L126,430.83a.1.1,0,0,1,0-.05L119.41,425a1.57,1.57,0,0,0-1.34-.37,1.55,1.55,0,0,0-1.12.85l-.13.25-3.13-1.88a1.57,1.57,0,0,0-2.09.41l-.68.93a0,0,0,0,1,0,0l-.23-.14-4.76-2.14a1.59,1.59,0,0,0-2,.7l0,.1,0,0-3.63-2.18A1.57,1.57,0,0,0,98,422l-.21.34s0,.09-.06.13a1.72,1.72,0,0,0-.45-.16L95.47,422a1.58,1.58,0,0,0-1.83,1.78l.68,4.76-7,.17L85.82,426,75.49,393.68l-7.16.67-3.71-20.44h2.91v-.33h0l7,20,1-.33L63.59,359.36l-1.09-3.09-2.06-7.22L53.13,346v-.08l12.12,3.79a1.81,1.81,0,0,1,.83.56l22.32,26.61a1,1,0,0,1,.15.2v.11h.06a1.9,1.9,0,0,1,.18.57l1.32,8.85a2.75,2.75,0,0,0,1.4,2,2.7,2.7,0,0,0,2.22.19l-2.38,15.28.75.46a2.64,2.64,0,0,0,1.39.4h4.86L98.25,406A2.68,2.68,0,0,0,99,408.1a2.65,2.65,0,0,0,1.9.81h2.3a2.62,2.62,0,0,0,1.45-.45,2.74,2.74,0,0,0,.34.9l.56.9a2.62,2.62,0,0,0,2,1.26l2.56.22h.24a2.6,2.6,0,0,0,1.27-.32,2.85,2.85,0,0,0,.27.92l0,.1a2.67,2.67,0,0,0,2.36,1.46h4.73a2.7,2.7,0,0,0,1.48-.46.13.13,0,0,0,0,.06l.53,2.13a2.63,2.63,0,0,0,2.31,2l8,.72h.23a2.61,2.61,0,0,0,2.35-1.45l1.09-2.15a2.59,2.59,0,0,0,.26-1.36l-1.88-22.49h3.86l.19,0-2.09,22.28a2.58,2.58,0,0,0,0,.63l.39,2.84a2.67,2.67,0,0,0,2.63,2.28h6.72a2.63,2.63,0,0,0,2.52-1.87l1.8-5.89a2.6,2.6,0,0,0,.11-1.07l-2-18.18a2.77,2.77,0,0,1,.49-2.25.49.49,0,0,1,.16-.07l3.92,1.95a2.71,2.71,0,0,0,1.63.27l.35-.05-3.56,16.46a2.67,2.67,0,0,0-.06.56v7.5a2.64,2.64,0,0,0,2.64,2.64H166.5a2.65,2.65,0,0,0,2.4-1.53l1.77-3.81,1.73,3.79a2.65,2.65,0,0,0,2.4,1.55h13.09a2.65,2.65,0,0,0,2.64-2.64V408.8a2.2,2.2,0,0,0-.07-.56l-3.59-16.44a2.6,2.6,0,0,0,1.59-.27l3.32-1.65.37-.06.14-.05c.45-.2.63-.06.69,0a2.72,2.72,0,0,1,.49,2.24l-2,18.12a2.53,2.53,0,0,0,.11,1.06l1.81,5.88a2.65,2.65,0,0,0,2.54,1.86h6.27a2.67,2.67,0,0,0,2.62-2.29l.31-2.21,1.07,2.13a2.6,2.6,0,0,0,2.33,1.45h.23l7.89-.72a2.6,2.6,0,0,0,2.3-2l.53-2.11,0-.21a2.62,2.62,0,0,0,2,.94h4.73a2.64,2.64,0,0,0,2.34-1.45l.08-.13a2.88,2.88,0,0,0,.25-.9,2.64,2.64,0,0,0,1.28.32h.23l2.56-.22a2.62,2.62,0,0,0,2-1.25l.56-.92a2.69,2.69,0,0,0,.34-.89,2.62,2.62,0,0,0,1.46.45h2.3a2.57,2.57,0,0,0,1.84-.77l.1-.08a2.65,2.65,0,0,0,.73-2.07l-.09-1.08h4.87a2.63,2.63,0,0,0,1.38-.4l.75-.46-2.36-15.22,0-.06a2.7,2.7,0,0,0,2.22-.19,2.75,2.75,0,0,0,1.4-2l1.32-8.85a1.69,1.69,0,0,1,.21-.62l.45.06v-.62l22.06-26.3a1.83,1.83,0,0,1,.82-.56l12.11-3.78ZM24.12,300.68,29,280.12l.54.76v-.43l20,17.18L48,312l0,.34L24.28,302Zm-6.59-74.35,6.25,2.29-.21,5.75-6-4Zm11-124.47,5.09,10.63-1.89,19,.14,1.43-5-7.66-.09-2.76Zm-.37-3.1-.63-1.32.72,1.19ZM207.45,13.05l-1.87,15-34-3.88-.37-14.64,36.11,3.32Zm30.08,24.67V56.56l-31-10.33v-17Zm62,29.92-3.41,8.6L273.53,56.47h0V43.52l25.78,22.9Zm14.78,54.79-.08,2.76-5,7.67.14-1.48-1.93-19.3,5.09-10.63Zm-1.63-24,.62-1-.54,1.12ZM291.59,312.52l-31.07,6.15-.95.47-.05-.25-3.63-14L290.13,298l1.51,13.91Zm-49.41,91.1-.85-10a2.11,2.11,0,0,0-.17-.71l-.82-2.16,3.37-.52-.13-1-2.17.25,1.86-1.55A2.74,2.74,0,0,1,246,389l1.44,9.28Zm5.4-4.07.62,4-.19.12a1.62,1.62,0,0,1-.85.25H243.3Zm-19.65,11.2a1.75,1.75,0,0,1-.11,1.13l-.07.12a1.66,1.66,0,0,1-1.46.91h-4.73a1.63,1.63,0,0,1-1.64-1.49l-.41,0-1.78-18.67.24,0a3.42,3.42,0,0,0,.45,0l4.78-.8h0l4.45,17.78h0Zm-22.86.3-1.9-20.17a1.38,1.38,0,0,0,.2,0h3.38Zm-34.4-.15-2.24-7.1-1.91-14.52,3.82-.72,4.38.81-1.76,14ZM146.61,392l1.95,18.18a1.66,1.66,0,0,1-.07.66l-1.8,5.9a1.65,1.65,0,0,1-1.57,1.16H138.4a1.68,1.68,0,0,1-1.64-1.42l-.39-2.82a1.94,1.94,0,0,1,0-.41l2.13-22.66a3.09,3.09,0,0,0,.44-.24l2.59-1.95a1.7,1.7,0,0,1,1.4-.31l3.67.73a1.94,1.94,0,0,1,.48.16l.18.09A3.94,3.94,0,0,0,146.61,392Zm-27.53,20.9h-4.73a1.68,1.68,0,0,1-1.48-.92l0-.09a1.68,1.68,0,0,1-.13-1.14l.25-1h0L117.4,392h0l4.79.8h.18L120.55,412A1.62,1.62,0,0,1,119.08,412.91ZM93.24,398.32,94.68,389A2.75,2.75,0,0,1,97.37,388l1.85,1.55-2.17-.25-.13,1,3.37.53-.81,2.12a2.51,2.51,0,0,0-.18.74l-.85,10Zm4.09,5.59H93.48a1.65,1.65,0,0,1-.86-.25l-.19-.12.62-4ZM78.23,334l3-13.38L102,330.91l-.64,18.7-23.13-15.4ZM49,312l1.51-14,33.7,6.74-3.66,14.16,0,.21-.82-.41L49,312.63ZM134.55,47.32l.51,22.84-32.53,9.58V58Zm36-22.9v0Zm35,4.62v17l-34-1.16.09-19.73Zm32,28.57v22l-32-9.43,1-22.87ZM237,387.91a1.63,1.63,0,0,1,1.53,1l.33.87-5.36.64,1-1.76a1.65,1.65,0,0,1,1.41-.8Zm.27-1,4.85,0a1.79,1.79,0,0,1,.68.13l0,0-3,2.48-.36-.93A2.61,2.61,0,0,0,237.31,386.93Zm4.4-1h-6.83l.65-8.41,1-1.06.09.48.54-1h5.39Zm-11.7.92a2.24,2.24,0,0,0-.37.1l.65-4.61.83-.44,3.32-3.29-.59,7.6Zm-6.29,3.89a1.7,1.7,0,0,1-.62.26l.37-5.2.51-.09,5.22-2.79-.58,4.13.58.08a2.34,2.34,0,0,0-.27.15Zm-34.21-4.81,2-6.12,8.22-.88h.72l-1.81,7Zm-15.71,2.28,1.79-.15-.58.38Zm-7.7.13-.36-.22,1.08.09Zm-6,1.54-.19,0-1.72-2h5.16l.24,0,1.06.67-1.57.3ZM142,385.91l-1.82-7h.68l7.71.8,2,6.21Zm-34.74.35-.6-7.72,3,3,.74,5.28Zm-2.57,1.65a1.65,1.65,0,0,1,1.41.81l1,1.75-5.36-.64.33-.87a1.64,1.64,0,0,1,1.54-1Zm-3.52.7-.36.93-2.84-2.4-.16-.09h0a1.79,1.79,0,0,1,.73-.14h5.1A2.63,2.63,0,0,0,101.13,388.61ZM38.66,273.33,39,273l10.54,5.9H44.45ZM43,278.91H30.56l6.69-5.55ZM29.53,249.7v-2.52h-.39l.07-.35,2.12-6.17,4.35,2.85-.88,7.73ZM38,197.11l8.75-15.56,10.94-2.73L54,190.49l-.25.07L37.31,200l.33-2.06h1.67ZM135.08,71.17l.44,30.73h-.15l-30.84,8-1.94-29.1ZM290.86,93.28l-4.62,17.28L266,95.15l3.08-21.77Zm11.46,107.27-1.6,6.92-14.13-10.7.5-5ZM229.84,305.93l-10.19-6.1,15.92-.76-.57,1.34-4.54,5.13Zm.9,1.71,3.9,5.94-11.09,9.22-.93-11.1,7.23-4.59Zm-1.31,73.58-.06.46-5.64,3-.2,0v-8.28l.82-.35,4.23-3.49Zm-7.32,9.46-5,.48.68-4.39,4.67-.82Zm-31.6-11.77h-5.68l.7-11.84v-.24l7-1.15-1.76,13.19Zm-7.75,8-.15,0h-4.48l.33-7h5.32l-.24,6.1Zm-11.68.53-.26-6.33,0-1.15h6.6l-.33,7Zm-7-.45-.3-6.16,6-.82,0,1.1-.27,6.33Zm-12.47-1-1.64-5h5.35l.21,5.46.15.17Zm-11.72-8-.74-11.73,7.43-.6,1.71,13.09-7.41-.76ZM123,391.33l-5.06-.49-.37-5.11,4.69.83ZM110.21,307.1l7.24,4.61-.91,10.64-10.92-9.1,3.69-5.61Zm-.62-1.56-4.54-5.13-.57-1.34,15.92.76-10.19,6.1Zm-58.08-20.4,3.35-3.32.07-.07,20,5.49.09,0,1.55-.12v3.7ZM107.4,140.92,80.49,151.83l-1.93-28.94,0,0,25.08-11.58Zm29.42-4.76.71,0v24.79h-.84l-29.07,5.84.77-25.1Zm67.71-65.25v31l-33-1.7V70.91Zm30.88,39.82-3.67,29.43-27.11-5.29-1.08-.07L205.49,103Zm50.59.88-2.8,23.25-20.48-12.67,3.12-25.9Zm.13,79.77-.5,5-22-6.3.77-4.9Zm13,77.56-15.21,9.7-.89.27h-.65l.17.14-18.84,5.66-.17,0v-1.86l-.7,1.72-17.44-3.64-.07-.1-.11.07-1-.21L222.52,276v-.46l-16.07-9.74-8-15.62-7-6-.95-5.13v-7.53l1.61-5.46,9.21-9.23,12.89-10.91,21.77-3.4,0,.44,24.47,2.21.6-.77,1.8.17,18.83,6.54,10.75,8.63.19-.11,5.59,13.25-.15.09,2.2,19.27h.13Zm-36.59,21.24-1.09.45,1.09-2.68Zm-2.28.72-19.66-.22-.35-.05.25-.58V285.8l.85-.55,20.51,1.67Zm-37.66,32.34-2.82,2.8L216.32,329l-1.42,1,2.08-11.5,4.72-5.74ZM217.12,378l-1.5-13.3,0-.11,2.2-1.51,4.73,12.3v.47l-4.83,2.09Zm-45.59,1v-12h5.59l.36,12Zm-1-.07h0V366.91h0ZM164,365.91l-.71-12.08,6.2-.51v12.59Zm-1.3,14h-6.45l-.74-13h7.54l-.37,12.47Zm-13.41-1-1.74-13.24,6.95,1.14.71,12.36,0,.72h-5l-1-.92Zm-31.8,5.8v-8.31l5.38,2.36-.62,6.78Zm-5.91-14.14v0l2.74-12.32,7,4.27-4.72,12.28ZM78.22,287l21.31-1.74v4.63l-19.74,1Zm.51,3.92h-1.2v-3ZM57.31,279.71l19.22,5.8v.62l-1.46.12L55.84,281Zm20.37,6L95.31,282l2.92,1.92h-.64l.7.45L77.83,286ZM58.79,210.19l-3-4.39,20.74-4.65v.33l1.62,2H78Zm-15.6,5.35,11.56-9.49,3.11,4.55-9.68,7.74Zm12.33-18.19v-.11l21-6v8.88l-21,4.7Zm114.8-1.24h.21v.27L170.05,209l-.05,0-.47-12.58v-.33h.55v0Zm61.32-55,.79,25.5-28.18-5.74h-.72V135.79l1,.07Zm27.89,30.54-25.79-4.77-.3-.07-.8-25.51.42.08,26.47,10.88V171.7Zm-27.06-3.93,1.36,12.11-29.72-1h-.58v-17h.57l28.37,5.78Zm65.4,47.77-5,2.8-9.67-7.77,3.09-4.52Zm-34.68-12-1.33-.12,1.67-2.1v-.4h.09l21.64,4.85-3,4.42Zm-25.62-2.32h-.06l-.62.1-.33-3.3.55-.12,25.42,2.91V201l-1.86,2.34ZM240.51,284l0-3h-1v3l-17-3.88v-3l21.5,4.63h0ZM218.1,347.14,217.66,362l-2.19,1.53-1.92-15.22.81-.19,3.51-2.52Zm-7.33,1.8,1.8-.44,1.94,15.4-3.43.57Zm-.05-1-.91-14.48,2.79-.63-.07,14.67Zm-8.63,2.1-8.35,2.7.77-8.45.31-.32H195l0-.17,6.42-6.76,2.09-1.85L202.12,350Zm-16.57,2.89-.24-10.07.12,0,7.76,0,.37,1V344l-.81,8.89Zm-6.7,0-1.28-12.79,6.73,2.36.25,10.43Zm-7.3,13V353.4l6.12.51h.21l-.69,12Zm-16-13,.23-10.07,7.92-2.79-1.31,12.86Zm-8.19,0-.81-8.86v-.11l0-.06h.12l0-.28.24-.68h7.87l-.23,10Zm-18.27,11.57-3.48-.57,1.94-15.43,1.84.45Zm-11.53,10.88,4.72-12.29,2.23,1.57L123,377.74Zm7.81-44.3-.48-.48.45.31Zm-18.24-42.15-6-3.92.38-.08h.06l0,0,17-3.86v6.25Zm-6.58-3.09,5,3.3-5,.72,0-.08Zm44.15-26.38,2.84,3.43-10.8,15.91-1.19-10.32Zm5.07-34.25L141,216.45l4.15-2.45,1,.7,7,9.72ZM104.69,197l.87-5.38,0-.68,31.93,4.11v.07l-8,7.05ZM77.52,191l.2-.05H104.6l0,.66-.88,5.37-26.16,3Zm28.6-10v0l30.41-1h1v14.18L105.65,190Zm62.45,14.12-30-.89V179.91H169Zm3-15.15h31v14.26l-31,.92Zm91,19.91-25.47-2.92-.66.14-.91-5.57,0-.55h27.07Zm-28-8.24.92,5.66-23.85,5-8-7.08V195l30.94-4Zm-43.16,33.61-3.49-.77,7-9.72,1-.71,4.17,2.46Zm-.48,20.12,6.68,5.67-1.62,6.45-9.32-12.32,2.63.92-1.7-1Zm-5.62,96.45-.52-6.32-.11-.53h5.76l2.45,7h-7.17Zm-28.71-89.59V244.4l6-2.11v5.22l-5.86,5.91Zm0-20.31,5.41-2.59.2,1.1.37,4.81-6,1.75Zm30.75-19.93,7.43,1.66-.49.33-7.41,10.24-5.7-2.37Zm-2.74,25-6-1.77.36-4.73.2-1.16,5.44,2.59Zm8.33,25-7.63-7.66.29-2.62v-6.31l10,13.27Zm11.45,71-.49.43-4.18-5,1.12-.92-1.16-11.56,2.51.54,1.41.11v16.44Zm-4.6-6-.71.59-3-3.63.25-.27,1.06-8.31,1.26.28Zm-8.64,7,0-.09-2-3.69,1.71-.56,4.51-4.92,2.92,3.52-7,5.74Zm-7.47-4h3l-2.8.92Zm-.37,3.21L176.88,330l.69.13L183,332Zm.75-1.31,4.15-1.36,1.83,3.46h-5.13l-.48-.24Zm13.45-17.48.12-.93-1.93-14.22.74.1.13.36,2,14.91Zm-2-16.18-2.58-8.6,3.1,8.67Zm-23.94-38.41v-6.31l5.88,1.44.12.08v3.95Zm-1,52.11v-9.79l-1-41.05,1,.13v-.24h0Zm-1,10.46V328l-6.37,1.18L157.78,331l-.53-.18.37-1.91h-6l0,0-.78-.26-5.07-5.52-1.24-9.77,1.94-14.36.83-.11,3.17-13.47,2.65-8.82,1.08-3.46,0-.05v0l6-9.57,3.1-3.39,5.25.72,1,41.2V321.4h0Zm-33.22,10.6h.27l-.11.13Zm-4.78-16.05,5-.39v15.44h-5Zm20.59-40.45-3,7.41-2.74-1.47,4.84-13.18,1.9,4.08-.44,1.44ZM168.6,242.5l.85,4.41h-5.93V242Zm-5.11-7.56-.36-4.69-.24-1.34h5.7l.86,5.78-1,0,.2.12Zm14.68-6-.25,1.39-.36,4.65-5.11-.16.21-.13-2.06.06.86-5.81Zm-8.32-1h-.22l.19-1Zm.36,1h.24l-.42,2.87-.43-2.87Zm8.31,20,5.66,5.74h0l-.37,3.37-.52.07-4.77-3.62Zm-1-2h-6l0-4.31,6-.6Zm-14,12.26V255l.11-.08,5.79-1.42-.86,6.42Zm-4.71-.64,3.71-2.82V259Zm11.71-11.22,0-.16v.33Zm-.93-5.71.42-2.75.44,2.83Zm-6.06,6.31h6v4.49l-6,1.46v-5.94Zm-1,6.59-5.11,3.84-.19,0-.41-3.59,5.71-5.79Zm-4.84,4.89,4.4.6-2.69,2.95-5.76,9.12-2-4.21.24-.63,4.9-7.17Zm-12.1,38.76-.78.11,4.24-11.61Zm-.17,1-1.92,14.15v.06l.09.72-1.26.27,2-14.74.12-.33Zm-3.32,28.63,3.1-3.74,5.05,5.49.87.29-1.94,3.69Zm1.46-12.68,1,8.1-3.27,3.95-.31-.25,1.18-11.5ZM140,327.38l.72.58-3.15,3.81V316.39l.47,0,3.17-.69Zm-2.75,6.33,4.25-5.12,7.32,5.92-2.54,7.23Zm14.87-3.53,4,1.32-.48,2.41h-5.51Zm4.21.33-1.83-.6h1.95Zm.76,1.3.74.24,5.63-1.91,1-.19-7.76,3.73Zm14.41-79.42-.82-4.48h6.89v6Zm7.07,3.32,3.37,2.57-3.37.48Zm4.5,3.42,1.21.92,4.89,7.17.19.51L187.37,272l-5.78-9.15-2.86-3.13Zm6.12,18-1.2-4,1.87-4.09,4.27,11.56.61,1.73-2.85,1.53ZM185,259.42l-.59-.49.31,0,.37-3.34,7.14,7.16-.71.87-1.63,3Zm-.48-15v7.23l-.2,1.75-5.81-5.89v-5.2Zm-6-3.17v-.46l1.85,1.11Zm-1-.22-6.07.61-.87-5.64,6.94,4.19Zm-5.3-5.21,5.3.16v3Zm6.11-7.83-6.9,0-.17-.9.12-3.5,8.08-1-.2.31Zm-9.73,0h-5.9l-.86-4.9-.31-.5,7.9,1Zm-5.09,8,5.35-.16L163.52,239Zm5.83.72-.74,4.84-5.09-.51v-.82Zm-6.82,4.57-1.81.63,1.81-1.09Zm-6.21,17.94-.17.14-5.06,7.35-1.77-3.16-.57-.68h0l7.16-7.19Zm-7.82,4.89,1.94,3.48.16.35L146,280.29l-.62,1.76-8.13-2.31,10.91-16.07ZM146,283.3l2.69,1.45-5,13.66-3.11.42Zm-2.7,16.17-2,15.15-3.43.75-.22,0,2.66-15.52Zm-6.71,16-5.07.39.43-15.95h7.3ZM136,332.91l0,.36-1.32-.36Zm9.61,9.75,0,.2-1.12-1.18Zm4.13-7.75h5.73l-.11.58-.51,6.42h-7.56Zm6.61.72.15-.78,8.85-4.21-1.47,8.3-8,2.82Zm10.2-6.06,3-.56-.33,7.71-4.24,1.77Zm3.66,7.51.06-1.41,0-.73.23,2.09-.14,2.2Zm.39-9.27h0v-6.37l1-9.52V260.76l6-.85,3.27,3.56,6.08,9.62,0,.1,1.09,3.59.28.69,2.39,7.95,3.18,13.52.83.11,1.94,14.36-.09.7-.82-.17-1.23,9.61.27.32-4.43,4.83-1.62.53-.17-.32h-6.07l.39,1.92-5-1.68Zm4.21,1.79,1.55,9-4.43-1.85-.33-7.71ZM177.4,339,176,330.65l7.53,3.7.24,1.22.47,5.83Zm14-4.1h.23l7.23-6,4.11,5-1.18,1.24-7.6,6.77h-.36Zm13.1-18.36,4,.3v15.06h-4Zm.17,16.36H206l-1.32.36Zm-.23-17.36-2.69-15.64h6.31l.43,15.94Zm-1-.08-1.17-.09-2.78-.61-2-15.34,3.28.44Zm-6.34-17.1-4.67-13.05-.2-.51,2.8-1.51,5.45,15.53Zm-6.7-30.61,1.95-3.63.48-.57,11,16.17-8.16,2.32Zm3.08-5,2.79-3.41,9.25,9.1-1.18,10.28Zm-15-23.18v-3.39l6,1.78v5.23Zm7-7.34,3.32,1.27.41,4.87-3.73-1.16Zm-.85-1.43-5.39-2.58.88-4.95.4-.64,5.85,2.43Zm11.13-18-7.76-1.75,15-15,7.55,6.65Zm-8.91-2h0L173,209.25l28.21-12.69Zm-.67.92-6.08,9.68-9.6,1.18h0L171,210ZM169.5,222.48l-8.63-1.06h0l-6-9.66,14.21-1.6Zm-15.33-11.65h0l-14.29-14.31,28.28,12.73ZM138,196.08l15,15-7.74,1.73,0,0L130.47,202.7Zm15.78,15.86L160,221.8l-5.72,2.38L147,214l-.63-.43Zm6.72,10.72.39.62.89,5-5.41,2.55-1.7-5.76Zm-5,14.58-3.7,1.14.41-4.87,3.29-1.26Zm1,.74,6-1.78v3.4l-6,3.62Zm-1,7.37v6.87l.24,2.11-7.65,7.72-2.75-3.29,0-.05Zm-20.9,24,1.14,9.89-16.24,7.69V280.6l14.86-11ZM119.53,288l15.59-7.35L131,298.49l1,.23,4.14-17.91.3.2.27-.4,8.39,2.39-5.57,15.91H122.78l.21-.64-.49.3-3-10.45Zm3.54,12.55-.19-.65H131L130.54,316l-3.61,1-3,.56-1.33-17.24Zm4.09,17.38,3.37-.92v14.76l-3.18-.72-1.13-.77-2.13-11.77Zm-.63,13.77V332l-.06-.31Zm1.07,15.79-.07-15,2.82.64-.93,14.8ZM131.35,333l4.73,1.32,1.41,15.56-7.08-1.72Zm7.17,17.16-1.34-14.7,8.36,8.79.74,8.11,0,.34-7.79-2.52Zm26.21-10.53,4.49-1.87.71,8.21-.37,6.24h0v.08l-6.15.51Zm13,13.26-6.18-.52-.57-6.42.51-8.36,5.06,2.12,1.33,13.18Zm26.88-18.57,4.23-1.19.94,15-6.58,1.6Zm8.72-3.28-3.75.85V317l3.4.93,3,.57-2.21,12.22Zm2.8-13.53-2.92-.56-3.65-1-.43-16.08h8.36Zm-14.52-18.62L196,283l8.31-2.37,4.22,18.28Zm3.82-18.65-.18-.27,1.22-10.65.3.29,14.81,11v7.23Zm16.15-3.57v2.72l-14.16-10.54-.84-.82v-.47Zm-16-10.52v.89l-8.86-8.71L198.3,252Zm-19.9-22.33-.1-.15v-5.42l4.08,1.26.88,4.74Zm3.9-12.51v1.37l-3.92-1.5,1.75-5.87,3.7.82ZM201,215.81l-4.15-2.45,14.54-10,2,2Zm13.28-10.94-1.82-1.82,23.16-4.82.33,3.25Zm71.29-7.46v7.42L263.78,200l-.26,0v-8.85l22,6.28Zm-22.85-7.5H235.54l-.13,0-.47-9H235l28.46,4Zm-28.26.14-30.89,4V179.9h.56l29.85,1Zm-31.89-29.14h-31V133.73l31,2Zm0,1v17h-31v-17Zm-.74,33.27L171.05,209l.48-12.61v-.33ZM169,208.54,139.34,195.2l29.2.86v.36Zm-30.45-29.63v-17h31l-.48,17Zm-1,0h-1l-30.28,1,1.36-12v-.09l29.2-5.87h.74Zm-30.91-12-26.09,4.76V152.89L107.39,142Zm-26.17,5.79L106.57,168l-1.35,12-28,4ZM77.13,185l28-4-.46,8.92h-27l-.19.05Zm.4,16.16v-.19l26-3,0,.21-.31,3.09-23.84,2.15Zm27-2.83,0-.27,24.13,5-1.81,1.81-22.68-3.54Zm25.25,5.1,14.55,10-4.17,2.43-12.35-10.45Zm24,21.93,1.76,5.88-3.92,1.51v-1.31L150,226.16Zm-2.26,14.21,4.1-1.26v5.42l-.11.14-4.86.42Zm-8.1,11.37,6.73-5.6,3.51-.31-1.71,1,2.58-.9L145,257.67l-1.71-6.61Zm.82,7.65-8.62,8.51v-.9l7-13.77Zm-9.62,9.49-.79.78-14.21,10.58v-2.76l15-9.07Zm-16,12-18,4.1v-3.2h-.12L118.53,277Zm-19,3.55L96.7,281.7l.34-.07,2.49-.54Zm7.32,6.39,13.58,8.88L104,298.05,101,290.79Zm1.53-.22,10.17-1.44,2.82,10Zm13.38,12.13,1.15,14.83-4.39-5.33Zm-3.41,10.86,4.71,5.73,2,11.06-.72-.48-6.88-5.9Zm8.19,20.92.07,13.62-.59-.14-3.67-2.67,1.87-13.1Zm-4.35,11.92,3.32,2.42,1,.26-1.92,15.28-2.2-1.54L122,347Zm3.29,19.3,3.57.63.33,13L124,378Zm4.89-15.68,7.18,1.76.56,14.27-8-.61Zm8.74,16-.54-13.92,8.16,2.65h7.8v11.92l-7-1.15V353.91h-1v10.67Zm16.42.73v-12h6.81l.7,12Zm23.31-12h5.69v12h-6.37Zm6.69,0h7v10.76l-7,1.16Zm7.72,0,8.82-2.84-.55,14.15-8-.64V353.91Zm9.83-3.11,6.7-1.62.3,15.41-7.55.58Zm8,14.68,3.54-.59,1.48,13.18-4.53.45-.81-.06.32-13ZM214,347.12l-.5.12.07-13.68,2.24-2.23,1.87,13.1Zm3.11-30.43,1.15-14.83,3.25,9.52Zm1-17.79-1-.63.22.64h-7.73l-4-17.48,15.79,7.47-2.84,10Zm4.19-9.83,9.36,1.34-12,7.84Zm.22-1V281l16.67,3.83-.14.09h.48v.34l-6.63,4.34Zm17-1.67v3.32l-.31.72-4.82-.68Zm3.2-2.08.73-.45H242.4l3-2,17,3.55-.2.48Zm20.8,1.33.09,0,.13,0,19.69-5.92,1.45,1.24L266,286.25l-2.45-.2Zm35.61-53.34-5.57-13.25,5-2.81,4.21,14ZM286.73,205.1l-.2,0V198l13.81,10.46.08.36-.33,1.44-1.72,4.42Zm-51.66-25.17h-.23l-1.35-12,.06,0,26.09,4.83,3.72,11.2Zm25.46-8V152.72l.39.16,20.31,5.8.92,19.08-21.42-5.84Zm.71-19.95-.66-.27,2.05-28.37,20.2,12.51.25.18-1.81,21.68Zm-1.63-.67-26.26-10.79-.64-.12,3.66-29.29,25.3,11.67ZM204.1,102.85l.39,0-1.93,31.86-31-2V101.18Zm-33.57,59.06v17h0l-.17,7.5-.18-7.5H170l.48-17Zm-1-2.06,0,0V134.08l.45,0Zm-.43,1.06H138.53V136.05l30-1.91v26ZM77.6,123.48l1.91,28.69-19.72,5.55-1.85-22.06ZM59.82,158.75l19.71-5.55v18.73l-20.62,5.54Zm-1,19.81v0L79.33,173l-3.19,11.13-21,6Zm17.28,6.63.34,5.05-21.07,6-.5-5ZM54.53,205.06l-.21,0-11.63,9.55L41,210.3l-.47-2,14-10.61ZM42.48,216.29l5,2.81-5.66,13.44-3.61-2.07ZM38,231.52l3.39,1.95-1.34,11.74L36.74,243ZM40,246.32l-.56,4.9-3.61.09.81-7.19Zm2.62-13,5.77-13.68.2.11,10.74-8.63,18.83-6.54.76-.07.64.81L104,203.06l.07-.73,22.74,3.55,12.86,10.88,9.24,9.26,1.62,5.46v7.44l-1,5.22L142.7,250l-.09.18-.5.41.09.37-7.6,14.8-16.07,9.75V276l-21.7,4.65-1.31.27-.21-.13-.14.2-17.82,3.72-.06,0-.76-1.88v1.65L58.2,279l0,0H58l-.89-.27-15.21-9.7-1.41-17.48ZM55.7,278.91H51.58l-11.84-6.62L42,270.14Zm-.15,1-.86.74-1.33-.74Zm23.58,12,2.71,6.7-4-6.69Zm1.07,0,19.77-1,3,7.2-17.94,5.77Zm41,8.66-3.47,10.16-6.54-4.17Zm-1.92,25.87,4.09,4.06-1.88,13.25-5.94-4.94v0l1.86-13.95Zm2,18.48L121,347l.43,14.33-6.88-4.17.9-17.13Zm-7.7,11.7-11.21-6.35.64-18.71,11.48,7.7Zm-8.28,15.07.17,4.37-.79-.8Zm-1.4,2.23-8.17-15.24,6.35-6.2,3,14.5Zm-1-22.18,10.53,6L110.73,370l-4.59-2.93-.22-4.89-.36,2.09Zm8.55,20.07,5,4.16v8.3l-5.94-3.19Zm12.4,7.16,5.61.57,1.12,6.4h-6.35l-1-.17Zm6.47-.47-.31-12.87,8.09.61.75,11.7h-.27Zm26.14,7.5-.18-5.07h6.46l.28,6h-4.8l-1.08-.16Zm7.23-6.16,0-.44.37-12.46h5.44V379Zm14.73-.89-.36-12h6.42V367l-.7,11.88Zm15.06-13.2v-.14l7.95.64-.73,11.64v.05h-1l-7.91.82Zm8.95.45,7.61-.58-.31,12.81-7.32-.49h-.72Zm9.13,13.34,4.61-.44.63,6.84h-7.34l1.13-6.46Zm6.23,6.24-.63-6.78.67-.07,4.65-2v8Zm6-10.52-.36.15v-.12l-4.88-12.78,7-4.23,2.74,12.23.09,1Zm5.46-4.91-2.82-12.62L238.32,351l-2.79,13.44-.4-2.29-.19,4.92-5.34,3.41-.21.18Zm6.4,1.34.62,3.57-.79.8Zm.24-4.51,3.06-14.7,6.3,6.15-8.2,15.29Zm-9.54-10.55-.91-17.35,11.5-7.72.64,18.71Zm-1,.56-6.81,4.14.42-14.21-.32-2.22,5.8-4.83Zm-6.88-13.45-1.82-12.81-.06-.44,1.32-1.32,4.63-4,1.82,13.63Zm3.73-33-3.45-10.15,10,6Zm-1.64-11.91,12.44-8.16,5.67.82-2.8,6.61Zm19.13-7.2.12,0,.57.08,19.33.21-4.86,12-17.94-5.77Zm21.09.33h0l1.58-.65v.09l-4.32,7.26Zm2.61-4.86,2.46.2h.08l19.73-5.41,3.13,3.11-25.4,4.9Zm22.78-6.38-.26.07-1-.83h2.62Zm-1-1.76,14-8.89,2.22,2.16-12,6.73ZM303,271.09l-2.87-1.86,1.35-17,3.73.09Zm-1.46-19.86-.58-5.08,3.48-2.28.85,7.45Zm-.71-6.2-1.33-11.72,3.51-2,1.3,11.46Zm2.81-15.49-4.23-14-.2-.17,1.73-4.47,4.14,17.38Zm-39.12-45.38L260.74,173l21.56,5.88L286,190.31ZM283.15,178l-.92-18.95,9.87,5.43,1.81,16.21ZM292,163.3,282.28,158h0L284,136.69l10.51,7.75.11-.16Zm-7.86-27.78v-.05l2.75-22.83L299,127.47l-4.12,15.94Zm-22.36-13.83L236.5,110,238.44,81l26.47,14.67Zm-26.25-12-30-7.74V71.17l31.93,9.41Zm-31-39.8-33,0v-24l34,1.14Zm-34.29,31.18.27,0v31.53h0V133l-1,.07V101.15Zm-1.73,32-30,1.91-1.95-32.2,32-1.65Zm-31,2-.83.06-28.33,5.47-3.72-29.78,30.83-8h.09Zm-34-24.89v0l-25.1,11.59L75.57,95.76l26.05-14.48ZM74.64,96.47l2.88,25.89-19.7,12.2L55,111.42ZM54.13,112.34l2.75,22.82-11,8.09-4.07-15.77Zm2.86,24L58.82,158l-10,5.42v-.07l-2.66-19.05Zm1.82,22.83-.9,18.59-11,2.71,1.75-15.8Zm-4.87,32.43.49,4.93h0L40.27,207.2l-1.59-6.87Zm-14,18.48.13.54,1.83,4.72-.2.17-4.31,14.36-1.77-1.62ZM37.11,231l-1.3,11.43-4.14-2.71,3.59-10.41Zm2.48,21.25L41,269.52l.05,0-2.85,1.86-.05,0-2.25-19.07Zm11.72,27.69,2.59,1.44-3.41,3.39-5-4.83Zm-.4,6.12,25.78,5.88,7,11.73L50.55,297Zm52.48,13,.77,1.84,4.73,5.37.38.25-.67.4-3.85,5.85-18.32-8.26Zm1.88,15.22,11.17,9.3v.07l.08.07-1.92,14.4-11.54-7.74V330Zm-3.71,36.67.41.23-6.73,6.58-9.17-7.34,15.35.43Zm1.75,24H98.06l-7.6-9.65,4.57-5.8Zm-3.9,11-.87-10h5.31l.54,1,.09-.48,1.06,1.06.65,8.41Zm6.75-17.65,4.41,2.81-.9,9.1L106.52,377Zm5.22,18.82-.69-4.86,5.86,3.17.38,5.34h0l-5.19-3.46A3.47,3.47,0,0,0,111.38,387.08Zm11.93-.33.89.16h6.69l1,2.69-1.89-.47a2.74,2.74,0,0,0-1.91.22l-4,2Zm8.33-.84-1.13-6.46,8.15-.54h.46l1.81,7ZM151.87,387l4.8.71,1.82,2.1-2.94.27,0-.23-3.19-.53Zm25.78.93h4.21l-1.63,1.83-2.35-.76-1.45-.28Zm7.78,2,0,.15-3.89-.34,1.7-1.92,4.89-.73-.6,2.48Zm-1.13-3.27.22-.25.22-6,0-.47h5.69l-2,6.14Zm17.21-7.75h.92l7.21.48-1.13,6.53H199.7Zm1.42,10.94-2.57-2.94h7.8l-.95,2.69-.36.09v.23h-3.47A1.68,1.68,0,0,1,202.93,389.84Zm6.29-2.94h7.53l-.65,4.19-3.51-1.75a2.74,2.74,0,0,0-1.25-.3,3.07,3.07,0,0,0-.67.08l-2.45.61ZM230.58,381l-.15.08-.92-9.24.68-.56,4.7-3-.36,8.77Zm7.16-6.12,8.31-15.5,4.61,5.85-7.59,9.65ZM246,357.53l-.13.16-7-6.86,16.18-.46Zm-20.55-19.4-1.87-14,.38-.32,10.91-9.09L237,329.93l0,.42Zm10-25.18h0l-3.93-6.06-.65-.39.26-.17,4.75-5.33.84-2L254,304.6Zm28.13-21.32v-.76l26.18-5,.37,11.17-33.77,6.75Zm26.53-7-3.2-3.17,2.85-1.59H295Zm1.44-5.76,10.76-6h0l-6.23,6Zm12.16-6,6.91,6h-13.1Zm.23-1.11,2.32-19.65,5.32-1.56v27.79Zm7.64-22.26-5.29,1.55-.9-7.86,4-2.6,2.23,6.47Zm-6.32-7.42-1.31-11.53,1.47-1.33,3.59,10.4ZM301.5,209l-.06-.25,1.56-6.69,1.73,5.51.22-.06,3.28,20.38H306Zm1.89-9-16.26-9.33-3.7-11.55,10.72,2.68,8.53,15.13-1.57,1h2.29l.69,4.33Zm0-3.88-8.23-14.6-.75-6.77,10.72-9Zm-9.24-22.47-1-8.57.36.2v-1.88l7.86-15.73L307.76,137l-2.46,25.34-.1,1.93Zm6.38-26.46-7.31,14.63,2.48-17.71L300,127.55l6.57-13.73,1.77,17.56-.32,3.3Zm-1.13-20.8-12.31-15.1,4.61-17.2L306,111.28ZM269.26,72.21l4-14.66,22.48,19.66,0,.05-4.51,15Zm-4.2,22.35L238.57,79.88l-.06,0,0-.2V57.94l.17.06,29.45,14.72ZM169.72,82.68l-1.17,17.52-32,1.65-.45-30.94h33.46Zm-68.19-2.85,0,.36L75.44,94.69,72.59,72.92l28.94-14.48Zm-27,15.48-19.75,15L50.19,93.3l21.5-19.62ZM49.37,94.1l4.54,17L41.42,126.4,34.9,111.48Zm-8.55,33.42,4.27,16.54,2.4,17.16-7-14.07-7.38-12.38-.33-3.28,1.73-17.26Zm-1.24,20.11,8,15.89v1.75l.06,0-.94,8.4L35.87,164.7l-.13-2.38L33.3,137.1Zm-2.9,48.64-7.95-5-.92-35,7,8.78ZM36,166.06l10.31,8.55-.82,7.23h0l-7.82,13.9Zm.31,40.38,1.62-5.13,1.52,6.58-4.76,20H32.8Zm-1.93,22.47-3.52,10.21-.12-.07,1.93-10.15Zm.53,23.39L37.19,272l.08.05-7.74,6.41V250.74ZM44,279.91l5.88,5.67-.35,10.78L30.43,279.91ZM81.5,319.14,85.15,305l19.24,8.66-2.31,16.15L81.4,319.58Zm18.35,30.65-15.07-.43-5.1-4.09-.46-.14-.85-9.64Zm-20.72-3.68,4,3.2-5.39-.15L79,346.07Zm-2.35,2.8-18.29-9.26L78,345.77Zm7.67,1.44,9.93,7.89.13.26-4.71,6L78.51,350.18Zm5.39,15.73,7,8.94-7.3,1Zm7.69,9.85.88,10a2.8,2.8,0,0,0-1,.22l-3.85,1.66a1.76,1.76,0,0,1-2.44-1.37l-1.32-8.85a3.53,3.53,0,0,0-.14-.56Zm1.81,29h.38l-.35-.36.92-10.8a1.56,1.56,0,0,1,.11-.45l.9-2.34,1.41.26-.35-.31,5.09.61-2.61,15a1.65,1.65,0,0,1-1.61,1.37h-2.3a1.71,1.71,0,0,1-1.22-.54,1.69,1.69,0,0,1-.47-1.29Zm7.58-16.7a2.64,2.64,0,0,0-2.27-1.3h.17l3.34.54-.38,2.21Zm2.23-.6,1.32.21a1.73,1.73,0,0,1,.68.27l5.19,3.46.12.06L112,409.52h0a1.63,1.63,0,0,1-1.73,1.23l-2.56-.22a1.65,1.65,0,0,1-1.26-.79l-.56-.9a1.69,1.69,0,0,1-.21-1.14Zm12.39,24.59a2.67,2.67,0,0,0,.16-.69h-.1l1.8-18.79a3.52,3.52,0,0,0,.51-.19l.18-.09h.1v-.05l4.33-2.16a1.71,1.71,0,0,1,1.2-.14l2.69.67,1.9,22.72a1.61,1.61,0,0,1-.17.83l-1.08,2.15a1.6,1.6,0,0,1-1.6.89l-7.95-.72a1.62,1.62,0,0,1-1.43-1.23l-.54-2.14a1.94,1.94,0,0,1,0-.59Zm11.78-22.36-.34-.09-1-2.85h8.32l-2.57,3a2,2,0,0,1-.43.06h-3.94Zm14.2-1.74a2.74,2.74,0,0,0-.73-.25l-3.67-.73a2.72,2.72,0,0,0-2.08.42l.56-.64h9.22l.52,2.21-2.19-.37a2.33,2.33,0,0,0-.66-.16ZM160,390.92l3-1,2.54-.48,1.82,14.11,2.56,8.28a1.61,1.61,0,0,1-.08,1.14L168,417a1.66,1.66,0,0,1-1.49,1H153.17a1.64,1.64,0,0,1-1.64-1.64v-7.5a2.16,2.16,0,0,1,0-.35l3.65-16.82Zm11.46,20.93,2.41-7.84,1.87-14.45,1.59.29,3,1,5.53.83,3.68,16.8a2.35,2.35,0,0,1,0,.35v7.47a1.65,1.65,0,0,1-1.64,1.64H174.8a1.65,1.65,0,0,1-1.49-1l-1.8-3.95A1.59,1.59,0,0,1,171.43,411.85Zm16.95-21.41h0l0,0Zm.25-1.05.6-2.46.14,0H199l.56.64a2.71,2.71,0,0,0-2.07-.43l-3.67.74a2.69,2.69,0,0,0-.74.25l-1.65.82Zm5-.41a1.76,1.76,0,0,1,.44-.15l3.68-.74a1.76,1.76,0,0,1,1.4.33l2.61,1.95a2.18,2.18,0,0,0,.41.24l2.13,22.66a1.76,1.76,0,0,1,0,.39l-.39,2.83a1.66,1.66,0,0,1-1.63,1.42H196a1.64,1.64,0,0,1-1.58-1.16l-1.82-5.88a1.78,1.78,0,0,1-.07-.65l2-18.12A3.58,3.58,0,0,0,193.6,389Zm14.16,1.87a1.75,1.75,0,0,0,.24,0l2.92-.73a1.74,1.74,0,0,1,1.21.14l3.81,1.9,0,.15.27,0,.52.26,1.89,19.83a1.67,1.67,0,0,1,0,.59l-.53,2.12a1.62,1.62,0,0,1-1.42,1.22l-7.89.72a1.63,1.63,0,0,1-1.58-.89L206.06,414a1.6,1.6,0,0,1-.17-.82Zm20.89,18.67h0l-4.48-17.91a.39.39,0,0,0,.11-.06l5.21-3.46a1.62,1.62,0,0,1,.68-.27l1.31-.22L235,407.7a1.66,1.66,0,0,1-.21,1.13l-.56.92a1.67,1.67,0,0,1-1.26.78l-2.56.22A1.63,1.63,0,0,1,228.65,409.52Zm3.82-22.09,3-.5h.32a2.61,2.61,0,0,0-2.06,1.28l-.86,1.45Zm3.32,19.11-2.61-15,4.92-.58-.33.26,1.56-.25.91,2.38a1.44,1.44,0,0,1,.1.42l.92,10.8-.35.36h.38l.1,1.16a1.63,1.63,0,0,1-.42,1.25l-.1.09a1.63,1.63,0,0,1-1.16.5h-2.3A1.65,1.65,0,0,1,235.79,406.54Zm7.44-20.42a3.13,3.13,0,0,0-.52-.16l.88-10,7.43,1a3.22,3.22,0,0,0-.16.61l-1.32,8.85a1.77,1.77,0,0,1-.89,1.29,1.73,1.73,0,0,1-1.55.07Zm1-11.09,7-8.86.26,9.84Zm7-10.58-4.73-6,.12-.21,10-7.92,6-.17Zm11-15.29-4.36.12,3.34-2.66Zm1.14.17-1.31-3.28,20.43-6.4Zm-2.53-3.64-4.6,3.64-16.1.46,21.47-14.3-.87,9.95Zm.88-11.44-23.13,15.37L238,330.91l20.85-10.32L261.82,334ZM238,329.82l-2.24-15.88.13-.11L255,305.24l3.59,13.89.1.47Zm53.07-33.46-.35-10.91,5.74-5.54h13.77Zm19.11-56.26.34-.23.52,2.71Zm-.34-1-3.52-10.21h2.11l1.89,9.9Zm-.57-11.21-4.94-30.62v-.2l8-5v.24l3.92,35.33-.52.2Zm3.08-37-7.94,4.93,1.78-31.18v0l7.08-9Zm-6.06-28L309,135l5.19-7.9L313.3,154Zm8-8.28,8.25-4.24-.42,37.49-.17.11-8.6,2.64Zm-4.22-50.49,1.9-4.55.14-.22.15.21Zm1-5-4.63,11.1L292.16,93.12,292,93l4.52-15,14.94,20.53Zm-42.71-27.4L239.07,57.08l-.55-.19V38l.2,0,33.66,18.81ZM170.62,24.05h-.08l0-1.62Zm-.09,21.89v24H136.05l-.51-22.79Zm-35,.18v-17l33.91-3.87L169.52,45Zm-1,.17-32,10.65V38.06l32-8.74Zm-33,11L72.41,71.89l-3.74-15,32.86-18.36Zm-30,15.14v0L49.88,92.25l-4.53-15L67.82,57.58ZM44.53,78l4.53,15-.24.22L34.46,110.45,29.71,99.07l-.24-.39ZM30.71,104.05l-2-4.15,0-.21.1-.13Zm1.19,30.7.2.34,2.64,27.31.06,1.08-7-8.78-.86-27.53ZM28.73,192.5l7.9,4.91.06.05-.25.45h.19l-1.34,8.3L35,207.3l.16,0-3.32,20.57h-7Zm-4,36.38,6.87,0-1.82,9.55L24.52,235Zm4.84,10.64-1.34,7-1,3-.13.51.51.15,0,.11-1.53,5-2.26.19.69-19.28Zm-2.91,16.7L25.78,262l-1.4,3.32-.59-8.86Zm-2.14,11.5v-.16l2.19-5.23,1.81-11.6v27l-4.06-5.68.31-.43Zm54.74,51.92,1,.49-3,13.76-26.86-6.42-.08-.36-1.17-13.45Zm-2,15.27.87,9.89L53,336.89l-.28.7-2.12-9Zm-24.45,3.14,0-.15L76.4,349.84l-.1.28.68,0,.37.18,11.52,14.61-.29,10.59L66.84,349.59a2.78,2.78,0,0,0-1.3-.86l-12.45-3.89Zm222.22,10.68a2.86,2.86,0,0,0-1.29.86L252.46,375l-.28-10.1,11.52-14.61,24.06-12.18h0l-.22,6.7ZM288,336.92v0l-26.18,8.2.9-10.18L290,328.42Zm2.32-9.88-.07.29-27.46,6.53-3-13.73,1-.49,30.72-6.08Zm.75-29.4,20.43-17.55v.64l.19-.27,4.81,20.33-.11,1-23.8,10.33,0-.17Zm24.17-35.56-.92-6,2.93.24-.61,9.06Zm2-6.75-2.29-.19-1.51-4.89,0-.17.16,0-.38-1.12-1.81-9.63,5.15-3.38Zm-6.07-17.1-1.75-9.32h6.36l.49-.18.22,6Zm6.11-9.87,6.24-2.26v4l-6,4Zm13-79.59,5.27.13v36.84l-6.29-1.69Zm-2,36.43.27,37.71h-.22l-3.77,1.66v0l-1.42-36.06v0Zm-4.72,39.21v.6l-.38.17-6,2.18-3.9-35,0-.66,8.82-2.7Zm-1-75.12-8.21,4.2.88-28,1-1.57,6.3-6Zm-7-26-.25.35,0-1.2-2-22.72,3.87-8.07,5.2,25.11Zm-77-98.59-.93,12.05-31-8.46,1.89-15.15,30,11.23ZM208.2,11.94l-.14,0L206,7l30.69,10.23,1.47,5.9Zm-1.28-.12L171.38,8.54V8.48h-.15l-.14-5.85,0-1.07,33.19,4.11ZM169.53,24.23l-34,3.9-1.87-15,.52-.19L169.9,9.62Zm-67.33.64,30.45-11.42,1.86,14.85L102.5,37l-.91-11.82Zm-.67,12.54h0l-33,18.43V43.52l.8-.7,31.31-17.09Zm-34,19.09L45,76.25l-3.37-8.47.77-1L67.53,44.41v12ZM27.7,100.08l-1.94,22.4,0,1.19-.36-.54-5.91-5.64,5-24.1Zm-3.06,23.65,1.21,1.84.89,28.25-7.21-3.66V118.87Zm2,31.16.14.17.93,35.77L18.62,188l-.08-.05,1-36.71Zm1.08,37,0,.37-3.93,35.34-6.3-2.31v-.85l1-35.38Zm-9.19-42.21-.37-.19L11.49,148,14,116l3.87,1.32.66.62Zm-7-.61,6.27,1.34.75.38-1,36.59-5-3.18Zm0,35-5,.93V148.91h4Zm1,1.33,5,3.16-1,35.89v.43L12.33,223h-.11v-.33Zm-1.39,40.86L7.6,223.91h3.59ZM12.19,224l4.34,2v3.83l-4.42-2.9Zm5.34,7.63,6,3.93-.73,20.05v.06l-5.26,2.23Zm1.39,48.12,4.92-6.79,4.37,6.1-.14.63-.29.24H28l-4.59,19.41-4.89-9Zm4.27,21.61,0,.29-.51-.13Zm3.32,19.93-2.1-18.09,23.65,10.27h0l1.19,13.76-22.43-5.14Zm22.94,7,.09,0,1.88,8-20.54-5.2-3.5-7.89Zm2.23,9.11.19.79.21,6.34L34.39,339l-3-6.73Zm-18,2.39v0h0L38,348.34l-13.55-12.7Zm6.54,10.59L35.05,340.3l12.26,4.31.83,2,4.37,10.59,0,.75.28,0,2.41,5.84-.07.63ZM55,365.66l0,.2-2.73,8.19L41.53,353Zm-3.65,65.78,7.1,12.77-4,10.84-4.62-6.18Zm3.35,25.67,3.8,5.09v.48l1,11.06-7.17-10.21Zm12.8,18.38.87,10.92-4.06-5.78Zm1,.18,0,0,0,0,15.93,23.88v9.83L69.52,488v0Zm.88-.54,11.28-7,7.78,17.28-3.65,12.79Zm16.1,25.42,11.83,11-.75,9.81L86.4,512.07l-.87-1.24Zm12.76,11.84.41.38,13.2,4.11.1,0-.26,11-14.19-5.78Zm1-.43-.86-.8,3-13.11,14.41,5.8-3.66,12.06h0ZM113,516.91h16.25l-.42,11H112.74Zm58.53,10h18l-.1,8.05-17.88-1Zm40.33,1-.4-11h17.59l.26,11Zm14.37-24.14,14-5.63,3,13.23v.12l-.51.47-12.83,3.95Zm16.93,9.11.2-.12.73,9.48-13.78,5.62-.26-11Zm12.49-.81-10.6,9.63-.75-9.8,12.23-11.35v10.28Zm-2.48-26.53,7.77-17.32,10.61,7.46.07.95-14.43,21.63Zm4.36,14,14.22-21.32.77,9.78-15,21.37Zm15-24.28v-.15l-11.15-7.84,11.21-24.93.24-.59,8.72,3.68-.37.72-8,27.82.14.22-.69.92Zm9-12.08-6.85,9.17,6.85-23.87Zm-8.09,12.5.43-.58,3.61,5.83-4.06,5.78-.77-9.84Zm8.95-59.77-3.24-1.79L282,395.91h4.39Zm-.12-21,4.26-15.2v15.2Zm1.19-19.06,2.3-8.46.78,8Zm2.93-12.31-.16-1.7-.45,1.67,0-.13-.34.41,2.42-5.85.27,0,0-.71,5.21-12.64,12.26-4.31-5.14,10.07ZM307,339.82h0l0,0,9.16-4.14-13.54,12.7Zm-18.43,4.71.21-6.26.21-.87,20.28-5.14-3,6.73Zm21.22-13.43-20.55,5.2,1.91-8.14,22.22-5.11Zm4.37-9.83-.29.65-22.49,5.16,1.19-13.88,23.76-10.31Zm3.32-19.93.24.08-.26.07ZM328.66,228l.57,20.3-4.7,7.85V230.68Zm-4.17,31.23,5.32-9.87,8.39,11.18L334,274.28,324.43,260Zm11-36.72.06.43h-6.07l-.28-37.82,6.29,1.69Zm-19-140.85,10,28.92,9,29.93v7.42l-5.29-.13-2.57-32.88-4.34,1.49-5.44-26.26.62-1.31-.87-.47-.09.14-.06-.29-16.07-20.8L300.36,66l-.13-.11-1.67-9.77L287.27,45.84l12.38,10.9ZM238.8,16.85l34.71,17.36-.89,7.42L240.2,23.94l-.95-.36-1.78-7.11L205.59,5.85l.28,0ZM170.06,2l0,.62-.16,6L134,11.91l-.23.08,2.62-6.12ZM102.28,17.33l-1.76,7,0,.28L68.79,42l-.28.24-.91-7.53Zm-76.8,64.3,16.9-24.86L40.55,67.5l-16,20.69L24.19,90l-1-1.63,0,0Zm-10,28.94,7.21-20.93,1.08,2.26-5.13,24.78-.18-.18L14.17,115Zm-9,29.91,6.16-20.56-2.19,28h-4Zm0,81.93V186l5-.93-.29,37.56v.33l-4.77,0Zm-5,33.94,4.72-32.13,4.84,3.17-.59,20.84L2.47,259Zm7,39,2-14-2.45-6.79,8.67-13.07L18,279.08h0l-.43,11.44,5.38,9.86-1.92.68-11.1-2.81-.08-.16,8.28-5.43-.55-.84-8.15,5.35Zm10.76,6.33-6.76,2.41-2.13-4.66Zm.42,18.67,6,2.49.47.11L33,338.41l-10.67-4.82Zm3,15L39.38,351l12,23.48-9-2.21-17.84-28ZM47.82,425l2.69,4.83-1.58,17.8-4.18-5.59ZM42.55,454.3l.43-2.38,4.39,6.27,0,.33,1.48,5.22ZM51,467.09l.91-2.43L59.84,476l.94,5.91Zm12.76,14.47,4.75,6.76v.51l1.29,6.69-7.58-11.47ZM83.38,516,71.19,497.61h0l-1.45-7.47,14.74,21,1.32,6.39Zm16.29,9.78-1.44-2.38,13.34,5.44.34,0,5,7.23Zm130.47,3.1h.16l13-5.25-1.54,2.54-16.56,9.94ZM258.67,516l-2.9,1.75,1.72-6.59,14.78-21.07-1.46,7.48h.05Zm13.57-20.51,1.3-6.69v-.51l4.52-6.45,1.56,2.51Zm8.56-12.95,1.3-6.45,7.6-10.83.88,2.49Zm18.7-28.27L292,465.67l1.59-5.9,5.5-7.85Zm-7-5.76-.94-18.68L294,424l3.26,18.09Zm-.85-38-2.32,8.34-6-2.47,4.12-20.49h.1v-.28l6.16-5.44-3.15,14.11,0,.09Zm5-33.39-2.52,11.31-4.25-12.76,9.12-2.24Zm20.95-32.92L299.4,372.75l-.1-.41-9.78,2.4-.16-.47L301.25,351l18.41-17.25Zm5-25-2.74,13.69-12.23,5.52,7-15.66,7.46-3.13-.39-.92-6.53,2.74,2.2-18.9,2.06-.52,8.82,3.15.33-.95-7.41-2.64,10.8-2.74Zm8.94-37.85,2,14-1.31,2.85-9.68-6.36-.55.84,8.43,5.53-11,2.79-1.68-.6,5.37-9.86-.35-9.33.2.27,1.36-19.83,9.29,13.89Z"/></g></g></svg>